<svg width="36" height="36" viewBox="0 0 36 36" fill="none" xmlns="http://www.w3.org/2000/svg">
<path d="M19.5062 24.6802L16.8062 32.0068C16.7263 32.2221 16.5824 32.4077 16.3938 32.5389C16.2053 32.67 15.9811 32.7403 15.7515 32.7403C15.5218 32.7403 15.2977 32.67 15.1091 32.5389C14.9206 32.4077 14.7767 32.2221 14.6968 32.0068L11.9968 24.6802C11.9398 24.5256 11.85 24.3851 11.7334 24.2686C11.6169 24.152 11.4764 24.0622 11.3218 24.0052L3.99524 21.3052C3.77994 21.2253 3.59425 21.0814 3.46313 20.8929C3.332 20.7043 3.26172 20.4802 3.26172 20.2505C3.26172 20.0209 3.332 19.7967 3.46313 19.6082C3.59425 19.4196 3.77994 19.2757 3.99524 19.1958L11.3218 16.4958C11.4764 16.4388 11.6169 16.349 11.7334 16.2324C11.85 16.1159 11.9398 15.9755 11.9968 15.8208L14.6968 8.49426C14.7767 8.27896 14.9206 8.09328 15.1091 7.96215C15.2977 7.83103 15.5218 7.76074 15.7515 7.76074C15.9811 7.76074 16.2053 7.83103 16.3938 7.96215C16.5824 8.09328 16.7263 8.27896 16.8062 8.49426L19.5062 15.8208C19.5632 15.9755 19.653 16.1159 19.7696 16.2324C19.8861 16.349 20.0265 16.4388 20.1812 16.4958L27.5077 19.1958C27.723 19.2757 27.9087 19.4196 28.0398 19.6082C28.171 19.7967 28.2413 20.0209 28.2413 20.2505C28.2413 20.4802 28.171 20.7043 28.0398 20.8929C27.9087 21.0814 27.723 21.2253 27.5077 21.3052L20.1812 24.0052C20.0265 24.0622 19.8861 24.152 19.7696 24.2686C19.653 24.3851 19.5632 24.5256 19.5062 24.6802V24.6802Z" fill="#B9A06A"/>
<path d="M24.75 2.25V9" stroke="#B9A06A" stroke-width="2.25" stroke-linecap="round" stroke-linejoin="round"/>
<path d="M28.125 5.625H21.375" stroke="#B9A06A" stroke-width="2.25" stroke-linecap="round" stroke-linejoin="round"/>
<path d="M31.5 10.125V14.625" stroke="#B9A06A" stroke-width="2.25" stroke-linecap="round" stroke-linejoin="round"/>
<path d="M33.75 12.375H29.25" stroke="#B9A06A" stroke-width="2.25" stroke-linecap="round" stroke-linejoin="round"/>
</svg>
